<?xml version="1.0" encoding="utf-8"?>
<!-- Generator: Adobe Illustrator 27.2.0, SVG Export Plug-In . SVG Version: 6.00 Build 0)  -->
<svg version="1.1" id="Layer_1" xmlns="http://www.w3.org/2000/svg" xmlns:xlink="http://www.w3.org/1999/xlink" x="0px" y="0px"
	 viewBox="0 0 144 144" style="enable-background:new 0 0 144 144;" xml:space="preserve">
<style type="text/css">
	.st0{fill:#EB533A;}
	.st1{fill:#58595B;}
	.st2{fill:#12ABE3;}
	.st3{fill:#78230E;}
</style>
<g>
	<polygon class="st0" points="134.9,55.9 132.2,68.3 128.7,55.9 127.1,62.7 130.7,75.3 134.2,75.3 138.6,55.9 	"/>
	<polygon class="st0" points="88.8,55.9 83.9,69.7 85.7,75.3 92.6,55.9 	"/>
	<path class="st0" d="M106.8,66.5v5.1h6.9v3.6h-10.6V55.9h10.6v3.6h-6.9V63V66.5z"/>
	<g>
		<g>
			<path class="st1" d="M57.2,10.5l1.3-0.1l2.1,4.6l1.1-5l1.3-0.1l1.9,6.7l-1.3,0.1l-1.2-4.2l-1,4.5l-1.2,0.1L58.3,13L58,17.4
				l-1.3,0.1L57.2,10.5z"/>
			<path class="st1" d="M68.6,9.8l1.4,0.1l1.1,2.6l1.4-2.4l1.4,0.1l-2.3,3.8l-0.2,3l-1.3-0.1l0.2-3L68.6,9.8z"/>
			<path class="st1" d="M83.3,11.8l1.3,0.4l0.2,5.2l3.1-4.2l1.3,0.4l-4.4,5.9l-1.2-0.4L83.3,11.8z"/>
			<path class="st1" d="M93.6,15.4l1.2,0.5L92,22.2l-1.2-0.5L93.6,15.4z"/>
			<path class="st1" d="M99.5,18.3l1.2,0.7c0.7,0.4,1.1,0.7,1.3,1c0.2,0.3,0.3,0.6,0.3,1c0,0.4-0.1,0.7-0.3,1.1
				c-0.2,0.4-0.5,0.7-0.9,0.8c-0.3,0.1-0.7,0.2-1.2,0.1l-0.2,3.5l-1.2-0.7l0.2-3.3l-0.1-0.1L97,24.9l-1.1-0.7L99.5,18.3z M99.2,21.3
				l0.4,0.2c0.4,0.2,0.6,0.3,0.8,0.3c0.2,0,0.4-0.1,0.5-0.3c0.1-0.1,0.1-0.3,0.1-0.4c0-0.1-0.1-0.3-0.1-0.4
				c-0.1-0.1-0.3-0.3-0.6-0.4l-0.3-0.2L99.2,21.3z"/>
			<path class="st1" d="M106.7,23.1l3,2.4l-0.8,1l-1-0.8l-3.5,4.4l-1-0.8l3.5-4.4l-1-0.8L106.7,23.1z"/>
			<path class="st1" d="M113.1,28.6l0.9,1l-3.3,3.1c-0.3,0.3-0.5,0.5-0.5,0.6c-0.1,0.2-0.1,0.3-0.1,0.5c0,0.2,0.1,0.3,0.3,0.5
				c0.2,0.2,0.3,0.3,0.5,0.3c0.2,0,0.4,0,0.5,0c0.2-0.1,0.4-0.3,0.8-0.6l3.1-2.9l0.9,1l-3,2.8c-0.5,0.5-0.9,0.8-1.1,0.9
				c-0.2,0.1-0.5,0.2-0.9,0.2c-0.3,0-0.6,0-0.9-0.2c-0.3-0.1-0.6-0.3-0.8-0.6c-0.3-0.4-0.6-0.8-0.6-1.2c-0.1-0.4-0.1-0.8,0.1-1.2
				c0.1-0.4,0.5-0.8,1.1-1.4L113.1,28.6z"/>
			<path class="st1" d="M120.9,38l0.7,1.1l-4.3,6l-0.8-1.1l0.9-1.2l-1.6-2.3l-1.5,0.3l-0.8-1.1L120.9,38z M119.7,39.6l-2.5,0.5
				l1,1.5L119.7,39.6z"/>
			<path class="st1" d="M125.4,45.6l0.6,1.2l-5.1,2.4l0.8,1.7l-1.1,0.5l-1.4-2.9L125.4,45.6z"/>
			<path class="st1" d="M131.7,83.7l-0.2,1.3l-6.8-1l0.2-1.3L131.7,83.7z"/>
			<path class="st1" d="M130.5,90.1l-0.3,1.2l-5.2,1.6l4.4,1.3l-0.4,1.3l-6.6-1.9l0.4-1.2l5.2-1.6l-4.3-1.3l0.4-1.3L130.5,90.1z"/>
			<path class="st1" d="M127.2,99.9l-1.6,3.5l-1.2-0.5l0.5-1.1l-5.1-2.3l0.5-1.2l5.1,2.3l0.5-1.1L127.2,99.9z"/>
			<path class="st1" d="M123.5,107.5l-2,3.2l-1.1-0.7l1.3-2.1l-1.1-0.7l-1.3,2.1l-1.1-0.7l1.3-2.1l-1.5-1l-1.3,2.1l-1.1-0.7l2-3.2
				L123.5,107.5z"/>
			<path class="st1" d="M113.5,119l-0.1-1.3c0.9,0,1.5-0.3,2-0.9c0.4-0.5,0.6-1.1,0.6-1.7c0-0.6-0.3-1.2-0.8-1.6
				c-0.5-0.4-1.1-0.6-1.7-0.6c-0.7,0.1-1.2,0.3-1.7,0.9c-0.3,0.3-0.5,0.7-0.5,1.1c-0.1,0.4,0,0.7,0.2,1.2l1.3-1.5l0.9,0.8l-2.3,2.6
				l-0.2-0.2c-0.5-0.4-0.8-0.9-1-1.5c-0.2-0.6-0.3-1.2-0.1-1.7c0.1-0.6,0.4-1.1,0.8-1.6c0.5-0.5,1-0.9,1.6-1.1
				c0.6-0.2,1.2-0.3,1.9-0.1c0.6,0.1,1.2,0.4,1.7,0.9c0.7,0.6,1.1,1.3,1.2,2.2c0.1,1.1-0.2,2-0.9,2.9c-0.4,0.5-0.8,0.8-1.4,1.1
				C114.6,118.8,114.1,118.9,113.5,119z"/>
			<path class="st1" d="M110.1,123.6l-1.1,0.9c-0.6,0.5-1,0.8-1.4,0.9c-0.3,0.1-0.7,0.1-1,0c-0.4-0.1-0.7-0.3-0.9-0.7
				c-0.3-0.4-0.4-0.7-0.5-1.1c0-0.4,0.1-0.8,0.3-1.2l-3.2-1.3l1.1-0.9l3.1,1.3l0.1-0.1l-1.9-2.3l1-0.8L110.1,123.6z M107.4,122.4
				l-0.3,0.3c-0.3,0.3-0.5,0.5-0.6,0.7s0,0.4,0.2,0.6c0.1,0.1,0.2,0.2,0.3,0.2c0.1,0,0.3,0,0.4,0c0.1,0,0.3-0.2,0.6-0.4l0.3-0.2
				L107.4,122.4z"/>
			<path class="st1" d="M100.9,130.4l-1.1,0.7l-5.8-4.6l1.2-0.7l1.2,1l2.4-1.4l-0.2-1.5l1.2-0.7L100.9,130.4z M99.4,129.2l-0.4-2.5
				l-1.6,0.9L99.4,129.2z"/>
			<path class="st1" d="M93.7,134.2l-3.5,1.4l-0.5-1.2l1.2-0.5l-2.1-5.2l1.2-0.5l2.1,5.2l1.1-0.5L93.7,134.2z"/>
			<path class="st1" d="M85.7,137.1l-3.6,1l-0.3-1.2l2.4-0.6l-0.3-1.2l-2.4,0.6l-0.3-1.2l2.4-0.6L83,132l-2.4,0.6l-0.3-1.2l3.6-1
				L85.7,137.1z"/>
			<path class="st1" d="M77,139l-1.5,0.2c-1,0.1-1.8,0.1-2.3-0.1c-0.5-0.2-1-0.6-1.3-1.1c-0.4-0.5-0.6-1.2-0.7-1.9
				c-0.1-0.5,0-1,0.1-1.5c0.1-0.5,0.3-0.9,0.6-1.2s0.6-0.6,0.9-0.7c0.3-0.2,1-0.3,1.9-0.4l1.6-0.2L77,139z M75.6,137.9l-0.5-4.3
				l-0.6,0.1c-0.6,0.1-1,0.2-1.3,0.3c-0.3,0.2-0.4,0.4-0.6,0.8c-0.1,0.3-0.2,0.7-0.1,1.2c0.1,0.7,0.3,1.3,0.8,1.6
				c0.4,0.3,1,0.4,1.8,0.3L75.6,137.9z"/>
			<path class="st1" d="M60.2,139.3l-3.7-0.5l0.2-1.3l2.4,0.3l0.2-1.2l-2.4-0.3l0.2-1.2l2.4,0.3l0.2-1.8l-2.4-0.3l0.2-1.3l3.7,0.5
				L60.2,139.3z"/>
			<path class="st1" d="M52,138l-1.3-0.4l-0.3-5.2l-3.1,4.2l-1.3-0.4l4.3-5.9l1.2,0.4L52,138z"/>
			<path class="st1" d="M41.5,134.4l-3.4-1.6l0.5-1.2l2.2,1l0.5-1.1l-2.2-1l0.5-1.1l2.2,1l0.8-1.6l-2.2-1l0.5-1.2l3.4,1.6
				L41.5,134.4z"/>
			<path class="st1" d="M33.6,130.3l-1.2-0.8c-0.6-0.4-1.1-0.8-1.3-1.1c-0.2-0.3-0.3-0.6-0.3-1c0-0.4,0.1-0.7,0.4-1.1
				c0.2-0.4,0.5-0.6,0.9-0.8c0.3-0.1,0.7-0.2,1.2,0l0.3-3.5l1.2,0.8l-0.3,3.3l0.1,0.1l1.6-2.5l1.1,0.7L33.6,130.3z M34,127.3
				l-0.3-0.2c-0.4-0.2-0.6-0.3-0.8-0.3c-0.2,0-0.4,0.1-0.5,0.3c-0.1,0.1-0.1,0.3-0.1,0.4c0,0.1,0,0.3,0.1,0.4
				c0.1,0.1,0.3,0.3,0.6,0.5l0.3,0.2L34,127.3z"/>
			<path class="st1" d="M26.3,125.2l-1.1-0.9l0.7-2.7l-2.6,1l-1-0.9l4.1-1.6l2-2.2l1,0.9l-2,2.2L26.3,125.2z"/>
			<path class="st1" d="M18.8,118.1l-1-1.2c-0.6-0.8-1-1.4-1.1-2c-0.1-0.5-0.1-1.1,0.2-1.7c0.2-0.6,0.6-1.1,1.2-1.6
				c0.4-0.3,0.8-0.6,1.3-0.7c0.5-0.1,0.9-0.2,1.3-0.1c0.4,0.1,0.8,0.2,1.1,0.4c0.3,0.2,0.8,0.7,1.3,1.3l1,1.2L18.8,118.1z M19,116.3
				l3.4-2.8L22,113c-0.4-0.5-0.7-0.8-1-0.9c-0.3-0.1-0.6-0.1-1-0.1c-0.4,0.1-0.7,0.3-1.1,0.6c-0.6,0.5-0.9,1-0.9,1.6
				c0,0.5,0.2,1.1,0.7,1.7L19,116.3z"/>
			<path class="st1" d="M11.4,107.7l-0.7-1.2l4.7-5.7L16,102l-1,1.2l1.4,2.4l1.5-0.2l0.7,1.2L11.4,107.7z M12.6,106.2l2.5-0.4
				l-0.9-1.6L12.6,106.2z"/>
			<path class="st1" d="M7.5,100.2L7,98.9l1.9-2.1l-2.8-0.3l-0.5-1.3l4.4,0.5l2.8-1.1l0.5,1.2l-2.8,1.1L7.5,100.2z"/>
			<path class="st1" d="M3,84.7l-0.1-1.3L7.2,82l-4.5-0.8l-0.1-1.1l4.3-1.6l-4.5-0.6l-0.1-1.3l7,0.9l0.1,1.3l-4.3,1.7l4.6,0.8
				l0.1,1.2L3,84.7z"/>
			<path class="st1" d="M2.4,71.6l0.3-3.8L4,67.9l-0.2,2.5l1.2,0.1L5.2,68l1.3,0.1l-0.2,2.5l1.8,0.1l0.2-2.5l1.3,0.1l-0.3,3.8
				L2.4,71.6z"/>
			<path class="st1" d="M3.5,62.9l0.3-1.3l5.5,1.1l0.4-1.9l1.2,0.3l-0.7,3.2L3.5,62.9z"/>
			<path class="st1" d="M5.4,55.2l0.4-1.2l5.3,1.8l0.6-1.8l1.2,0.4l-1,3.1L5.4,55.2z"/>
			<path class="st1" d="M8.2,47.7l0.6-1.1l5.4-0.6l-4-2.1l0.6-1.2l6.1,3.1L16.3,47L11,47.6l4,2.1l-0.6,1.2L8.2,47.7z"/>
			<path class="st1" d="M13.7,38.1l2.2-3.1l1,0.8l-1.4,2l1,0.7l1.4-2l1,0.7l-1.4,2l1.5,1.1l1.4-2l1,0.8l-2.2,3.1L13.7,38.1z"/>
			<path class="st1" d="M22.3,29.2l-0.1,1.3c-0.6-0.1-1,0-1.2,0.3c-0.1,0.1-0.2,0.3-0.2,0.4c0,0.1,0,0.3,0.1,0.3
				c0.1,0.1,0.2,0.1,0.3,0.1c0.2,0,0.6,0,1.3-0.1c0.6-0.1,1-0.1,1.2-0.1c0.4,0,0.7,0,0.9,0.1c0.3,0.1,0.5,0.2,0.7,0.4
				c0.4,0.4,0.6,0.9,0.6,1.4c0,0.5-0.2,1-0.7,1.5c-0.3,0.4-0.7,0.6-1.1,0.7c-0.4,0.1-0.9,0.1-1.5-0.1l0.3-1.3
				c0.7,0.2,1.2,0.1,1.5-0.2c0.2-0.2,0.2-0.3,0.2-0.5c0-0.2,0-0.4-0.2-0.5c-0.1-0.1-0.3-0.2-0.5-0.2c-0.2,0-0.5,0-1,0.1
				c-1,0.1-1.6,0.1-2,0.1c-0.4-0.1-0.7-0.2-0.9-0.4c-0.3-0.3-0.5-0.7-0.5-1.2c0-0.5,0.2-0.9,0.6-1.3c0.2-0.2,0.5-0.4,0.9-0.5
				C21.3,29.2,21.8,29.2,22.3,29.2z"/>
			<path class="st1" d="M28.9,23.6l-0.2,1.3c-0.6-0.2-1-0.1-1.3,0.1c-0.1,0.1-0.2,0.2-0.2,0.4c0,0.1,0,0.3,0.1,0.3
				c0.1,0.1,0.2,0.2,0.3,0.2c0.2,0,0.6,0.1,1.3,0.1c0.7,0,1.1,0,1.2,0.1c0.4,0,0.7,0.1,0.9,0.2c0.2,0.1,0.5,0.3,0.6,0.5
				c0.4,0.4,0.5,0.9,0.4,1.5c-0.1,0.5-0.4,1-0.9,1.4c-0.4,0.3-0.8,0.5-1.2,0.5c-0.4,0-0.9-0.1-1.4-0.3l0.4-1.2
				c0.6,0.3,1.1,0.3,1.5,0c0.2-0.1,0.3-0.3,0.3-0.5c0-0.2,0-0.4-0.1-0.5c-0.1-0.1-0.2-0.2-0.4-0.3c-0.2-0.1-0.5-0.1-1-0.1
				c-1,0-1.6-0.1-2-0.2c-0.4-0.1-0.7-0.3-0.9-0.6c-0.3-0.4-0.4-0.8-0.3-1.3c0.1-0.5,0.3-0.9,0.7-1.2c0.3-0.2,0.6-0.4,0.9-0.4
				C27.9,23.4,28.3,23.5,28.9,23.6z"/>
		</g>
	</g>
	<circle class="st0" cx="41.9" cy="16.7" r="3"/>
	<path class="st2" d="M140.8,64.3c0,0-8.3,1.1-12.5,1.1c-11-0.1-25.2-3.8-33.5-4.8c-6-0.7-14.2,3.8-18.3,6.4c-1.8,1-3.7,2.2-5.8,3.6
		c-0.5-2.8-1.1-5.4-1.8-7.8c-3.8-15-6.2,9.2-13.2,8.2c-4.3-0.7-1.4-11.7-1.4-11.7c-2.4-1.2-3.5,2.6-3.4,4.4c-1.9,1-9.7,8.8-12.5,2.6
		c-2.4-6-8.3-1.5-9.1,1.2c0,0,1.7-10.7,0.8-13.2c-4-9.9-10.4,10.7-10.4,11.2c-0.4,0.1,4.3-11.5,0-9.7c-1.3,0.6-2.2,8-2.9,13.7
		c-0.8,5.8-0.8,7.2,0,7.4c0.8,0.2,2.4-0.5,3.4-3.8c1.9-5.4,4.1-14.7,6.9-18c0,0,0.2,6.7-0.6,11.3c-0.8,4.6-0.8,5.8,0.2,6.1
		c2.4,0.9,5.4-6.8,7.5-6.5c1.5-0.1,2.5,4.2,4.2,4.9c3.5,2.1,10.7-2.5,12.3-3.9c-0.2,8.2,6.9,8.6,11.8,2.1c1.6-2.3,3.4-5.8,3.4-5.8
		c1.1,3.1,1.8,6,2.4,8.9c-15.8,10.9-35.1,27.4-32,41.3c2.6,11.8,16.4,10.8,25.7-0.2c8.8-10.4,10.7-26.7,9.1-40
		c0.3-0.2,0.6-0.4,0.9-0.6c0,0,14.2-7.4,17.1-8.4c5.9-2.1,22,1.6,30.4,3c9.1,1.5,16.8,0.5,20.3-0.1
		C143.4,66.5,140.8,64.3,140.8,64.3z M39.1,107.3c1.8-10.9,20.9-26,29.8-32.4C74.1,114.2,35,132.3,39.1,107.3z"/>
	<polygon class="st3" points="79,55.9 75.2,55.9 82.1,75.3 85.7,75.3 83.9,69.7 	"/>
	<path class="st3" d="M95.3,55.9H99v19.4h-3.7V55.9z"/>
	<polygon class="st3" points="125.6,55.9 122.1,68.3 119.3,55.9 115.7,55.9 120.1,75.3 123.6,75.3 127.1,62.7 128.7,55.9 	"/>
</g>
</svg>
